<svg width="209" height="53" fill="none" xmlns="http://www.w3.org/2000/svg"><g clip-path="url(#clip0_61_513)"><path d="M3.496 0v53" stroke="#4C1B1B" stroke-width="6.75" stroke-linejoin="round"/><path d="M29.728 19.988c1.328 0 1.867.573 1.867 1.437 0 .864-.529 1.426-1.867 1.426h-5.03v-2.883l5.03.02zm1.152 7.496c1.431 0 2.147.718 2.147 1.718s-.716 1.738-2.147 1.738h-6.224v-3.456h6.224zm7.323-6.486c0-3.03-2.593-5.622-8.475-5.622H19.355a1.035 1.035 0 00-1.037 1.042v18.156a.983.983 0 00.63.98c.13.05.269.07.407.06h11.483c6.027 0 8.755-2.727 8.755-5.902 0-3.748-4.305-4.612-4.305-4.612v-.292a4.065 4.065 0 002.1-1.419 4.09 4.09 0 00.856-2.39h-.041zm14.615.427h.29l2.293 5.767h-5.02l2.437-5.767zm5.601 13.117a1.47 1.47 0 001.297 1.041h4.875c.57 0 .975-.427.716-1.041l-8.04-18.177a1.467 1.467 0 00-1.285-1.04H50.1a1.502 1.502 0 00-1.296 1.04l-8.04 18.156c-.259.573.146 1.041.727 1.041h4.585a1.44 1.44 0 001.286-1.04l1.037-2.603h9.056l.964 2.623zm19.459-19.738c-7.603 0-11.762 4.164-11.762 10.66s4.149 10.66 11.762 10.66c6.898 0 10.622-3.747 10.622-7.214a1.046 1.046 0 00-.693-1.095 1.033 1.033 0 00-.458-.05H83.77a1.832 1.832 0 00-1.722 1.145 4.377 4.377 0 01-1.706 1.855 4.354 4.354 0 01-2.443.602c-3.112 0-5.186-2.01-5.186-5.903s2.012-5.913 5.186-5.913a4.138 4.138 0 012.253.518 4.157 4.157 0 011.626 1.647 1.872 1.872 0 001.722 1.156h3.59a1.035 1.035 0 001.1-.693 1.01 1.01 0 00.05-.463c-.02-3.31-3.609-6.912-10.362-6.912zM106.3 24.933s1.898-.572 3.443-3.456l2.728-5.039c.229-.427 0-1.04-.715-1.04h-4.45a1.79 1.79 0 00-1.867 1.04l-2.728 5.039c-.216.49-.585.896-1.051 1.157a2.449 2.449 0 01-1.532.29H97.97v-6.486a1.043 1.043 0 00-1.037-1.04H92.64a1.036 1.036 0 00-1.037 1.04v18.156a.981.981 0 00.63.98c.13.05.268.07.407.061h4.294a.971.971 0 00.977-.632c.049-.13.07-.27.06-.409v-6.777h2.594a2.45 2.45 0 012.582 1.436l2.874 5.341a1.798 1.798 0 001.867 1.041h4.439c.726 0 .954-.572.726-1.04l-2.873-5.341c-1.867-3.446-3.879-4.03-3.879-4.03v-.29zm30.06-8.547c.28-.427 0-1.04-.716-1.04h-4.45a2.073 2.073 0 00-1.732 1.04l-4.305 7.059h-.28l-4.304-7.059a2.085 2.085 0 00-1.733-1.04h-4.45c-.715 0-1.037.582-.715 1.04l8.184 12.816v5.34a.983.983 0 00.629.98c.13.05.269.07.408.061h4.305a.97.97 0 00.754-.284.984.984 0 00.283-.757v-5.34l8.122-12.816zm10.58 5.039h.29l2.293 5.767h-5.072l2.489-5.767zm5.601 13.117a1.46 1.46 0 001.297 1.041h4.875c.571 0 .985-.427.716-1.041l-8.039-18.177a1.46 1.46 0 00-1.286-1.04h-5.882a1.502 1.502 0 00-1.296 1.04l-8.039 18.156c-.259.573.145 1.041.716 1.041h4.595a1.47 1.47 0 001.296-1.04l1.038-2.603h9.055l.954 2.623zm15.393-10.525v-4.029h5.187c1.867 0 2.728.864 2.728 2.02 0 1.155-.861 2.01-2.728 2.01h-5.187zm10.622 2.592s3.869-.853 3.869-4.601-3.008-6.631-9.335-6.631h-10.477a1.041 1.041 0 00-1.037 1.041v18.156a.982.982 0 00.63.98c.13.05.269.07.407.06h4.305a.97.97 0 00.754-.284.982.982 0 00.283-.756V28.66h3.734a2.441 2.441 0 012.583 1.437l2.438 4.477a1.8 1.8 0 001.867 1.041h4.45c.715 0 .944-.573.715-1.041l-2.437-4.477c-1.442-2.582-2.728-3.123-2.728-3.123l-.021-.365zm14.148 4.331V19.988h3.735c3.309 0 5.186 1.874 5.186 5.476s-1.857 5.476-5.186 5.476h-3.735zm-5.31 4.601h9.045c7.748 0 11.773-4.028 11.773-10.077s-4.025-10.088-11.773-10.088h-9.045a.974.974 0 00-1.038 1.041v18.156a.988.988 0 00.648.913.971.971 0 00.39.055z" fill="#044D29"/><path d="M92.41 50.304v-3.675h1.256c.461.035.893.244 1.208.584a1.846 1.846 0 01-1.208 3.09H92.41zm-1.794 1.551h3.05c2.603 0 3.952-1.364 3.952-3.394 0-2.03-1.349-3.383-3.952-3.383h-3.05a.322.322 0 00-.332.333v6.1a.333.333 0 00.332.344zm14.719-6.444a.313.313 0 00-.098-.243.316.316 0 00-.244-.09h-5.882a.331.331 0 00-.342.333v6.1a.345.345 0 00.342.344h5.882a.33.33 0 00.319-.21.337.337 0 00.023-.134v-.968a.313.313 0 00-.098-.242.316.316 0 00-.244-.09h-4.098v-.969h3.04a.329.329 0 00.309-.213.343.343 0 00.023-.13v-.969a.332.332 0 00-.332-.333h-3.04v-.874h4.098a.33.33 0 00.319-.21.336.336 0 00.023-.134v-.968zm3.039 1.645c0-.282.28-.584 1.152-.584a1.24 1.24 0 011.109.438.65.65 0 00.581.395h1.214a.35.35 0 00.373-.395c0-.968-1.037-2.082-3.277-2.082-2.241 0-3.372 1.04-3.372 2.175 0 2.718 4.679 1.791 4.679 2.76 0 .29-.343.634-1.307.634-.965 0-1.256-.291-1.39-.53a.656.656 0 00-.592-.396h-1.203a.363.363 0 00-.384.395c0 1.041 1.038 2.082 3.569 2.082 2.531 0 3.516-1.04 3.516-2.227 0-2.613-4.668-1.697-4.668-2.665zm9.937-1.646a.34.34 0 00-.101-.238.326.326 0 00-.241-.094h-3.962a.323.323 0 00-.332.333v.968a.324.324 0 00.093.242.332.332 0 00.239.102h.923v3.487h-.923a.322.322 0 00-.332.333v.968a.324.324 0 00.093.243.331.331 0 00.239.101h3.962a.34.34 0 00.342-.343v-.969a.34.34 0 00-.101-.239.326.326 0 00-.241-.094h-.913v-3.487h.913a.34.34 0 00.342-.344v-.968zm5.975 3.54l-2.406-3.54a.718.718 0 00-.529-.332h-1.639a.333.333 0 00-.353.333v6.1a.342.342 0 00.353.344h1.441a.323.323 0 00.313-.211.314.314 0 00.019-.133v-3.529h.104l2.417 3.53a.68.68 0 00.529.343h1.66a.329.329 0 00.309-.213.343.343 0 00.023-.13V45.41a.335.335 0 00-.095-.239.319.319 0 00-.237-.094h-1.453a.333.333 0 00-.342.333v3.54h-.114zm10.943-.635a.323.323 0 00-.321-.333h-2.874a.333.333 0 00-.342.333v.875a.34.34 0 00.101.24.337.337 0 00.241.093h1.038a1.417 1.417 0 01-1.494.926c-1.037 0-1.743-.676-1.743-1.988 0-1.312.685-1.988 1.743-1.988a1.415 1.415 0 011.307.635.765.765 0 00.57.395h1.214a.363.363 0 00.384-.395c0-1.041-1.203-2.228-3.475-2.228-2.552 0-3.952 1.405-3.952 3.581s1.4 3.581 3.952 3.581c2.272 0 3.61-1.353 3.61-2.904l.041-.823zm6.525 2.135a.56.56 0 01-.633-.532.86.86 0 01.436-.676l.923.864a1.033 1.033 0 01-.726.343zm3.226-2.177a.33.33 0 00-.488 0l-.664.604-.726-.676c-.767-.73-1.151-.968-1.151-1.26 0-.291.186-.437.581-.437a.953.953 0 01.715.437.804.804 0 00.581.396h1.203a.373.373 0 00.395-.396c0-.968-1.038-2.082-2.894-2.082-1.857 0-2.801.968-2.801 1.936a1.525 1.525 0 00.633 1.26v.094a2.076 2.076 0 00-1.556 1.842c0 1.114.923 2.03 2.603 2.03a2.97 2.97 0 002.075-.77h.093l.239.24a.822.822 0 00.674.343h1.836c.239 0 .384-.198.239-.344l-1.546-1.499.581-.572a.338.338 0 00.107-.245.34.34 0 00-.107-.245l-.622-.656zm9.221-1.644c.446 0 .633.187.633.479 0 .291-.197.49-.633.49h-1.691v-.969h1.691zm.394 2.509c.477 0 .716.24.716.583 0 .343-.239.583-.716.583h-2.074v-1.166h2.074zm2.458-2.176c0-1.04-.871-1.884-2.852-1.884h-3.465a.33.33 0 00-.352.333v6.1a.342.342 0 00.352.344h3.859c2.012 0 2.936-.916 2.936-1.988 0-1.26-1.442-1.551-1.442-1.551v-.094a1.381 1.381 0 00.964-1.26zM162.115 52c2.365 0 3.569-1.155 3.569-3.008v-3.623a.33.33 0 00-.098-.243.322.322 0 00-.245-.09h-1.452a.322.322 0 00-.332.333v3.633a1.45 1.45 0 01-2.894 0V45.37a.317.317 0 00-.094-.239.319.319 0 00-.238-.094h-1.442a.33.33 0 00-.352.333v3.633c0 1.885 1.161 2.998 3.578 2.998zm9.211-6.589a.328.328 0 00-.21-.314.32.32 0 00-.132-.02h-3.952a.323.323 0 00-.31.205.335.335 0 00-.022.129v.968a.342.342 0 00.093.242.332.332 0 00.239.101h.913v3.488h-.913a.323.323 0 00-.31.204.335.335 0 00-.022.13v.968a.342.342 0 00.093.242.334.334 0 00.239.101h3.952a.338.338 0 00.245-.097.34.34 0 00.097-.247v-.968a.328.328 0 00-.21-.314.32.32 0 00-.132-.019h-.913v-3.487h.913a.338.338 0 00.245-.098.34.34 0 00.097-.246v-.968zm7.147 5.132a.335.335 0 00-.219-.314.333.333 0 00-.134-.02h-3.62V45.41a.308.308 0 00-.09-.242.313.313 0 00-.242-.09h-1.441a.31.31 0 00-.332.332v6.101a.314.314 0 00.09.246.321.321 0 00.242.098h5.393a.348.348 0 00.249-.097.345.345 0 00.104-.247v-.968zm2.977-.239v-3.675h1.255c.462.035.893.244 1.208.584a1.846 1.846 0 01-1.208 3.09h-1.255zm-1.784 1.551h3.039c2.604 0 3.963-1.364 3.963-3.394 0-2.03-1.359-3.383-3.963-3.383h-3.039a.323.323 0 00-.31.204.334.334 0 00-.022.129v6.1a.333.333 0 00.332.344zm12.395-6.445a.308.308 0 00-.09-.242.313.313 0 00-.242-.09h-3.962a.323.323 0 00-.31.203.334.334 0 00-.022.13v.968a.333.333 0 00.332.344h.923v3.487h-.923a.322.322 0 00-.332.333v.968a.333.333 0 00.332.344h3.962a.325.325 0 00.242-.098.314.314 0 00.09-.246v-.968a.308.308 0 00-.09-.242.313.313 0 00-.242-.091h-.912v-3.488h.912a.325.325 0 00.242-.098.314.314 0 00.09-.246v-.968zm5.985 3.54l-2.406-3.54a.69.69 0 00-.539-.333h-1.639a.31.31 0 00-.332.334v6.1a.314.314 0 00.09.246.321.321 0 00.242.098h1.452a.33.33 0 00.31-.213.342.342 0 00.022-.13v-3.53h.104l2.406 3.53a.695.695 0 00.529.344h1.649a.332.332 0 00.332-.345v-6.1a.316.316 0 00-.094-.24.319.319 0 00-.238-.094h-1.452a.322.322 0 00-.342.334v3.54h-.094zm10.944-.635a.335.335 0 00-.094-.238.333.333 0 00-.238-.095h-2.863a.327.327 0 00-.242.094.326.326 0 00-.074.11.324.324 0 00-.027.13v.874c0 .044.009.089.027.13a.326.326 0 00.186.18.327.327 0 00.13.023h1.037a1.418 1.418 0 01-1.494.926c-1.037 0-1.742-.676-1.742-1.988 0-1.312.684-1.988 1.742-1.988a1.384 1.384 0 011.297.635.793.793 0 00.581.395h1.203a.37.37 0 00.37-.24.372.372 0 00.024-.155c0-1.041-1.213-2.228-3.475-2.228-2.551 0-3.962 1.405-3.962 3.581s1.411 3.581 3.962 3.581c2.262 0 3.61-1.353 3.61-2.904l.042-.823z" fill="#737373"/></g><defs><clipPath id="clip0_61_513"><path fill="#fff" d="M0 0h209v53H0z"/></clipPath></defs></svg>